<svg width="72" height="72" viewBox="0 0 72 72" fill="none" xmlns="http://www.w3.org/2000/svg">
<path d="M39.5819 35.9999C39.5819 37.9799 37.9819 39.5799 36.0019 39.5799C34.0219 39.5799 32.4219 37.9799 32.4219 35.9999C32.4219 34.0199 34.0219 32.4199 36.0019 32.4199C37.9819 32.4199 39.5819 34.0199 39.5819 35.9999Z" stroke="#1F1F1F" stroke-width="1.5" stroke-linecap="round" stroke-linejoin="round"/>
<path d="M35.9998 44.2707C39.5298 44.2707 42.8198 42.1907 45.1098 38.5907C46.0098 37.1807 46.0098 34.8107 45.1098 33.4007C42.8198 29.8007 39.5298 27.7207 35.9998 27.7207C32.4698 27.7207 29.1798 29.8007 26.8898 33.4007C25.9898 34.8107 25.9898 37.1807 26.8898 38.5907C29.1798 42.1907 32.4698 44.2707 35.9998 44.2707Z" stroke="#1F1F1F" stroke-width="1.5" stroke-linecap="round" stroke-linejoin="round"/>
</svg>
