<svg width="72" height="72" viewBox="0 0 72 72" fill="none" xmlns="http://www.w3.org/2000/svg">
<path d="M38.5319 33.4699L33.4719 38.5299C32.8219 37.8799 32.4219 36.9899 32.4219 35.9999C32.4219 34.0199 34.0219 32.4199 36.0019 32.4199C36.9919 32.4199 37.8819 32.8199 38.5319 33.4699Z" stroke="#1F1F1F" stroke-width="1.5" stroke-linecap="round" stroke-linejoin="round"/>
<path d="M41.8198 29.7705C40.0698 28.4505 38.0698 27.7305 35.9998 27.7305C32.4698 27.7305 29.1798 29.8105 26.8898 33.4105C25.9898 34.8205 25.9898 37.1905 26.8898 38.6005C27.6798 39.8405 28.5998 40.9105 29.5998 41.7705" stroke="#1F1F1F" stroke-width="1.5" stroke-linecap="round" stroke-linejoin="round"/>
<path d="M32.4219 43.5297C33.5619 44.0097 34.7719 44.2697 36.0019 44.2697C39.5319 44.2697 42.8219 42.1897 45.1119 38.5897C46.0119 37.1797 46.0119 34.8097 45.1119 33.3997C44.7819 32.8797 44.4219 32.3897 44.0519 31.9297" stroke="#292D32" stroke-width="1.5" stroke-linecap="round" stroke-linejoin="round"/>
<path d="M39.5114 36.7002C39.2514 38.1102 38.1014 39.2602 36.6914 39.5202" stroke="#292D32" stroke-width="1.5" stroke-linecap="round" stroke-linejoin="round"/>
<path d="M33.47 38.5303L26 46.0003" stroke="#292D32" stroke-width="1.5" stroke-linecap="round" stroke-linejoin="round"/>
<path d="M46.0013 26L38.5312 33.47" stroke="#292D32" stroke-width="1.5" stroke-linecap="round" stroke-linejoin="round"/>
</svg>
